/* XPM */
static char *_db42921caaf402d82e52ba4cd5be8f8ZYXfapXK6JglEBzA[] = {
/* columns rows colors chars-per-pixel */
"64 64 217 2 ",
"   c None",
".  c #07020F",
"X  c #08000A",
"o  c #070513",
"O  c #060916",
"+  c #050C1A",
"@  c #04101E",
"#  c #030E22",
"$  c #031422",
"%  c #031A26",
"&  c #011729",
"*  c #011D2B",
"=  c #001D31",
"-  c #01222D",
";  c #032829",
":  c #01322F",
">  c #002532",
",  c #0A2634",
"<  c #002B34",
"1  c #0C2934",
"2  c #142635",
"3  c #142A35",
"4  c #1C2B36",
"5  c #1B2F38",
"6  c #1A2A37",
"7  c #003336",
"8  c #003B36",
"9  c #003538",
"0  c #003B3A",
"q  c #0B3B3A",
"w  c #0B3637",
"e  c #1B3237",
"r  c #133038",
"t  c #1C3439",
"y  c #183A3B",
"u  c #222C37",
"i  c #292D37",
"p  c #222D38",
"a  c #2C2D39",
"s  c #202736",
"d  c #332E3A",
"f  c #392F3B",
"g  c #312738",
"h  c #263137",
"j  c #293337",
"k  c #22333A",
"l  c #2D333A",
"z  c #34313B",
"x  c #3E323B",
"c  c #3D3B3D",
"v  c #44333C",
"b  c #4C343E",
"n  c #4C3C3C",
"m  c #41393B",
"M  c #52353E",
"N  c #5B3C3F",
"B  c #58363F",
"V  c #613E3F",
"C  c #004236",
"Z  c #004B37",
"A  c #00443C",
"S  c #004B3D",
"D  c #08483A",
"F  c #184F3C",
"G  c #005137",
"H  c #00533B",
"J  c #005C3C",
"K  c #0C553B",
"L  c #16553C",
"P  c #22433C",
"I  c #265A3D",
"U  c #3A483E",
"Y  c #00633C",
"T  c #006B3C",
"R  c #08673E",
"E  c #1E623E",
"W  c #00733D",
"Q  c #007A3D",
"!  c #0D703E",
"~  c #414A3F",
"^  c #5C413F",
"/  c #53433E",
"(  c #47583F",
")  c #64443F",
"_  c #68463F",
"`  c #463F40",
"'  c #643D40",
"]  c #004740",
"[  c #004C41",
"{  c #174942",
"}  c #005442",
"|  c #005B44",
" . c #0C5843",
".. c #165744",
"X. c #2B4341",
"o. c #254641",
"O. c #006344",
"+. c #006B43",
"@. c #0B6647",
"#. c #176443",
"$. c #007443",
"%. c #097346",
"&. c #007C43",
"*. c #0A7A46",
"=. c #147F45",
"-. c #167647",
";. c #236341",
":. c #2D6F44",
">. c #2A7345",
",. c #277A46",
"<. c #357B47",
"1. c #414F44",
"2. c #445142",
"3. c #644140",
"4. c #684440",
"5. c #604942",
"6. c #724341",
"7. c #507449",
"8. c #00833D",
"9. c #008C3E",
"0. c #00923F",
"q. c #00993F",
"w. c #008443",
"e. c #008C43",
"r. c #0B8B45",
"t. c #0B8848",
"y. c #16874B",
"u. c #009343",
"i. c #099146",
"p. c #009C43",
"a. c #0E9B44",
"s. c #0D9A49",
"d. c #159A48",
"f. c #2A854B",
"g. c #38874D",
"h. c #289B50",
"j. c #379E4D",
"k. c #00A343",
"l. c #00AC44",
"z. c #0DA049",
"x. c #0DAB4A",
"c. c #1BA44A",
"v. c #1AAC4A",
"b. c #01B344",
"n. c #0BB546",
"m. c #01BD45",
"M. c #09BF47",
"N. c #0EB348",
"B. c #17B84B",
"V. c #26A84C",
"C. c #38AA4E",
"Z. c #24BF4F",
"A. c #35AB53",
"S. c #39A953",
"D. c #2EB151",
"F. c #26B750",
"G. c #34B552",
"H. c #29A951",
"J. c #5D8A50",
"K. c #439D52",
"L. c #53914D",
"P. c #62834B",
"I. c #45B151",
"U. c #49B853",
"Y. c #59BD59",
"T. c #59AD54",
"R. c #6AB157",
"E. c #01C345",
"W. c #01CB46",
"Q. c #0BC847",
"!. c #12C349",
"~. c #13CA4A",
"^. c #1BCD4C",
"/. c #12D44A",
"(. c #1DD44C",
"). c #18DB4B",
"_. c #23D54E",
"`. c #23DA4E",
"'. c #2CCC51",
"]. c #3ECA55",
"[. c #36C553",
"{. c #2DDA51",
"}. c #29D351",
"|. c #33D752",
" X c #3CD555",
".X c #3ADC54",
"XX c #32E153",
"oX c #3CE355",
"OX c #4BC45A",
"+X c #48CD58",
"@X c #54C85A",
"#X c #4BDB59",
"$X c #47D658",
"%X c #58DC5C",
"&X c #57D759",
"*X c #62D75D",
"=X c #71D85F",
"-X c #42E456",
";X c #46EB58",
":X c #4FE65A",
">X c #59E45C",
",X c #5DE95D",
"<X c #52E75B",
"1X c #4AF259",
"2X c #5CF25E",
"3X c #5DF85E",
"4X c #62EB5F",
"5X c #60F25F",
"6X c #6AED61",
"7X c #6BE662",
"8X c #70ED62",
"9X c #6BF461",
"0X c #6DFB63",
"qX c #64F960",
"wX c #75FC65",
"eX c #79FF66",
"rX c #72F364",
/* pixels */
"                                                                                                                                ",
"                                                                                                                                ",
"                                                                                                                                ",
"                                                                                                                                ",
"                                    > < < <           < < < >                                                                   ",
"                                    > H p.0.Z       > H 8.9.8                       > > >                                       ",
"                                      H 0.E.W C     > S e.k.8                     8 H T Z >                                     ",
"                        < 8 Z C 7       C l.k.J >   7 S +.T 7       8 Z 8 >     = C p.^.! =                                     ",
"                        7 W l.p.} 7     8 w.e.J < 7 [ $.T 9 7     8 &.l.Q >     > Z M.2Xf.>     < < < > >                       ",
"                          8 W l.l.&.C > < 8 8 T k.p.+.| +.*.@X:.< } O.+.O.A < > 0 O.p.^.r.A > > J +.A <                         ",
"              > >       > > 8 T w.J S A 0 > = Q W.l.w.O.$.n.XXU.f.O.e.A.H.&.< 0 [ } S Y S 9 < 0 $.p.e.Y 8 = = * = >             ",
"              < C       9 9 8 S | < A +.$.J 0 Y p.p.u.O.+.b.l. XS.| l.oX1XB.A [ +.%.;.;.K 8 0 S +.p.l.W A 8 D ;.K 8 >           ",
"              C w.C > 9 | O.w.s.r.8 A w.E.m.&.A H b.u.Z Z w.O.$.Y 8 w.b..X@X| | u.(.9XwXG.$.} 9 A +.W 8 [ $.c.,X^.Y >           ",
"              Z l.+.9 C w.l. X9X%Xr.C T m.p.l.p.$.+.C < 8 O.| C 0 | w.u.r.@.0 T l.W.(.9XS.S 8 W Z < 8 } $.e.p.~.w.A >           ",
"              Z m.e.A 9 $.k.:X9X{.n.Z H l.b.l.p.w.| < > 0 } A < 9 O.+.J C 0 S &.p.p.w.h.#.9 H k.q.W J 0 | u.b.k.H <             ",
"              Z l.p.J 0 A J C.|.E.b.Y A W p.w.w.&.S < > 7 A < < A S { t s e S $.&.$.} A t P *.}./.!.V.G A Y 8.Y 8               ",
"            = 8 w.e.$.} 8 9 Y p.l.w.O.0 < } | $.T < , 1 , > < A A 1 b B M f < A } } } 9 c ( r.%X{.oX6Xc.H < < >                 ",
"  > > < < < > C w.+.$.u.l.e.+.H 8 7 < < > < [ O.} < x b z < [ 0 < 3 _ ' d < > < < 0 | } q 1 8 @.OXwXwX6Xc.+.[ < < < < >         ",
"  > G a.U.d.Q Y S +.D. XQ.$XZ.W , d n n a > < 9 0 S 3 E d.8.C < 3 x N z w [ S Q 0.W 9 9 0 J 9.p.d.h.V.>.K S O.9.I.V.W <         ",
"  > H x.$X/.E.9.< W +X0XoX;X^.w.q a N 6./ R T H 0 S >.v./.|.R 7 i V d 1 7 [ $.'.).n.,.w S d.XXQ.v.y.+.0 A T s.XX#XZ.&.<         ",
"  > 9 | &.l.E.p.8 Y G.7X>X!.k.e.O.9 a 5.P.Q./.z.} D *X;X{.%Xs.D x ) w < > 8 w.$X.XXX6XF H V.>X_.2XY. .} $.p.~.>Xd.O.A <         ",
"      7 | w.u.w.| 9 S %.i.u.b.E.b.O.< <.4X~.<X[.$.@.*XeX#Xi.O.2.4.`  .0 > 7 | w.].wX8XF 0 +.d.,XeXR.x 1 [ $.i.r.+.A <           ",
"        7 8 H O.| 7 > 0 %.+X_.`.:Xr.8 <.wX2X[.r. .1.=X#Xd.O.| ....-.&.| y d 9 | r.].8XF > A +.c.4XT.3 A 0 y ~ U w <             ",
"      > 0 0 0 0 0 A < < @.7X3X XS.R e L.wX+Xt.H q l P.<.Z 0 A f.D.l.l.D.g.o.0 0 | =.g.q > < A +.f.>.A +.8 r X.X., >             ",
"  > q #.$.+.H 8 9 S A A @.OX*XK.{ 3 g 7.U.%.} 9 > > z t 7 7 > C.1X(._.1XA.[ | 7 0 A 2 3 3 1 < A C Z $.u.Z 0 | O.Z 9 7           ",
"  = >.,XQ.p.e.&.| 7 J w.O.+.S t b b e < 7 < < < < < } O.O.} < 8.{.9X9X_.Q 7 } 7 < r v b b d > < T e.u.M.H 0 +.e.e.$.[ <         ",
"  > K v.E.E.l.w.| z ,.l.w.k.u.J 4 b #.H < [ [ } A < $.k.k.&.7 S t.c.c.t.S > < > H %...r 3 p f , 9.l.a.<XE Z w.u.b.m.u.} <       ",
"    8 H T T W O.0 v L.XXb.l.Q Z 0 p  .O.S $.e.e.O.< Z 9.p.+.< k P Z S C 0 A 0 < J e.$.S < h ^ 1 Q b.!.rX,.Y e.$.w.&.Y 0 <       ",
"    > > = < 0 A 9 v J.].k.W A A O.Z A } $.p.^.!.8.< < J +.S A I I Z < < A O.O.9 Y k.p.$.C i ) 3 J e.a.U.-.+.$.[ ] 9 = > >       ",
"  > < 7 8 | S 0 } c o.| } 7 S $.e.e.Z S p.~.2X-Xq.9 } O.S 9 w.n./.n.8 A | +.e.8 W W.Q.u.S u v , A S 7 9 } O.| 7 <               ",
"  > A w.l.b.p.$.| w < < < > Q l.e.e.C Y ~.5XeX].w.| &.e.Y 8 k.-X0X&Xq A +.u.b.Z W ).,X=.X.d , > < 0 | $.w.p.k.} <               ",
"    8 Y k.l.b.l.&.} 7 > > A w.l.b.b.+.+.n.{.'.=.J p.l.'.j.9 $.v.G.f.7 < T !.-XL Z s.}.%.y 2 > > > 0 O.e.l.b.u.O.[ 9 = =         ",
"      ; J Y Q 8.T +.J A C O.$.w.9.9.J H T 8.T A J E.`.qXY.< 0 O.O.0 < > J N.#XL 9 O.8.H 0 0 0 0 < < H $.p.u.+.S } H H J         ",
"      O > > > > < W e.$.O.&.+.A < < < > < < < 0 +.M.<X0XI.< , A A , > < 0 +.l.Z 0 S < > A | O.| A < < [ } } S < [ $.p.b.H 9     ",
"          > > > < } O.| | | C 0 } } 9 > 7 } } 0 C u.Q.N.%., x 5 5 x , A A C w.C > < > > A +.w.O.$.J < < < < < < [ | +.u.l.Y =   ",
"            > > > 7 [ | | 0 H +.| | 9 7 [ | $.H < Z G Z 8 > 3 d d 3 > 7 < < C < 4 v n 3 < S +.&.$.+.J < a u < A 0 9 9 A H 8 >   ",
"            9 0 0 < 9 A 0 < Q u.| +.8 A $.$.p.T > > 9 < > > 0 k k 0 < 9 0 9 > 4 a v 4.z 1 < S $.$.e.k.W P 6 7 | J H C = = >     ",
"        7 8 H O.| 7 < 7 < > 9.l.+.$.A H e.p.l.T > < | S < 9 | 0 9 [ 9 A | | < d p 1 x v 4 > < S +.e.k.k.Z > 0 } +.e.w.Z         ",
"      < } $.w.&.| 7 A | } < 8.b.&.8 S } +.b.$.A > < W $.} | w.S > 7 } 0 J &.< > < < < , < < < < < 7 9 7 < 0 [ < < Q m.l.C       ",
"      < 7 8 C 8 9 A } | } < 8 Z C S | [ 9 Z 8 k d < Q $.O.w.b.Y = 9 &.$.u.p.7 > 0 [ [ < 0 [ [ [ 7 7 [ [ 7 < 0 [ [ Z Z Z <       ",
"      % > 9 0 9 < &.w.$.$.Y 8 = < +.O.[ 0 0 < 3 u < S &.k.l.8.C 2 j H p.l.&.< > A O.+.9 Y e.$.u.S C $.$.S < 7 | e.$.C = >       ",
"      $ C O.O.[ 7 e.l.p.p.e.Z > A u.$.O.+.+.8 < 9 7 > T k.9.9 > 6 d > Q &.A 9 7 0 O.w.8 W l.k.l.H A w.e.w.H < [ u.l.e.H         ",
"      9 Q w.+.[ 7 } u.m.l.+.9 9 O.l.k.e.e.w.C 0 | } 9 < < 7 < < < < < < < 7 } | 0 C &.8 0 &.l.+.0 0 O.e.m.Q > < [ e.m.l.C       ",
"      < 8 8 7 C W O.O.O.Z 7 < < 0 +.k.E.k.Z S } | | } 9 < [ } 9 9 } [ 7 > 7 } | 0 9 | 7 > A O.0 J J A l.W.Q < [ 9 8 Z C <       ",
"        $ $ & Z l.e.+.[ > a 3 > > 9 $.u.$.< O.+.O.$.O.0 C $.O.[ [ O.$.C > 9 $.O.| H 0 < > < 0 J p.Q 9 w.E.8.< 0 < & #           ",
"          X $ C 9.Q J 0 , d a p j 4 q ] 0 < J +.$.e.| 7 8 T +.+.+.+.T 8 > 8 w.$.e.8.< > 7 7 7 $.u.T < A Q Y > 9 0 - O           ",
"            % < < < < < > < a N ) b 5 < < > > J e.&.8 > > 7 &.u.u.&.7 > > 8 w.u.b.p.< > A A < } 0 < < < < < 7 | | A 7           ",
"          % 0 S < > A A < [ q 1 3 1 A } [ < > J Q 8 < a d < | k.k.| < d a 7 O.k.W.p.< > < < < } 0 9 } } } 0 8 &.O.+.T <         ",
"        * 0 A 0 A < A | S 0 < 3 a , Y $.} < > 8 C > > m V z 9 +.+.9 z 3.m < 9 H $.$.S Y C < S $.C A $.| | C 9 +.$.k.0.<         ",
"        < | | 0 A < 9 A A < > 3 a , Y &.O.< 9 < > 9 < x 6.N 1 9 9 1 N ^ j < 9 > < [ $.k.J 0 $.p.H A $.$.O.A < A J Q T <         ",
"        < Y +.A > > < < > > < < > 1 A +.T < } S 0 | 7 u N 4.4 > > 4 _ h > 0 } C < 8 Q k.J 8 e.m.Y 9 | $.O.0 > - > > > >         ",
"        > < < - O - A S < < A A , v 5 < < < W $.O.&.8 > p M b 6 6 b M 6 0 | | &.H > 7 9 < 9 +.b.Y > < 7 < < - O                 ",
"          @ + O o * J Y < A | [ < 3 d u > < u.k.&.+.9 0 A 4 b v v b 4 > S e.k.m.W > > A 9 < 0 H 9 9 A < 0 0 >                   ",
"                . * H $.J | [ 9 % > x z > < Y W H 0 < 0 0 , b ' ' b , > 8 W l.9.Z 7 J $.| 9 > & $ < A A +.H >                   ",
"                + - 0 | $.} 7 $ O > a i - > < < > 7 < > > < z 3.3.z < < < 9 T C > 8 W Q O.C * O   + < [ +.H >                   ",
"                > > > < < < $ X O - > % + > [ A 9 } 7 > > > > z z > > S A < 7 } 8 + < < < - o       + > < < >                   ",
"                  + O O O       X O +     < [ } A 9 < % O @ - 1 1 > > < A [ [ $.W                                               ",
"                                          < [ $.O.< % O X     % $ $ $ $ 8 O.$.Y                                                 ",
"                                          - 0 O.J - O                 X ; } T :                                                 ",
"                                          o - < - o                     $ < < +                                                 ",
"                                                                                                                                ",
"                                                                                                                                ",
"                                                                                                                                ",
"                                                                                                                                "
};
