/* XPM */
static char *_6ZoJEFSxdXr5NMRrm8hs51705235746[] = {
/* columns rows colors chars-per-pixel */
"64 64 70 1 ",
"  c #267F16",
". c #247C1D",
"X c #287F1E",
"o c #217721",
"O c #237920",
"+ c #287F20",
"@ c #298706",
"# c #2B8A07",
"$ c #27820F",
"% c #29860A",
"& c #2D8D0A",
"* c #318F07",
"= c #318F08",
"- c #2F9009",
"; c #329007",
": c #3F9A07",
"> c #32940B",
", c #3A970B",
"< c #35990A",
"1 c #3A9D0B",
"2 c #278115",
"3 c #298614",
"4 c #2D8B14",
"5 c #27811A",
"6 c #2A841A",
"7 c #2E8919",
"8 c #318D14",
"9 c #30871E",
"0 c #328B1C",
"q c #2F9011",
"w c #339212",
"e c #3B9412",
"r c #379810",
"t c #3C9B12",
"y c #36901B",
"u c #3A931C",
"i c #3E991A",
"p c #3DA10C",
"a c #3FA111",
"s c #298020",
"d c #429D07",
"f c #419E0B",
"g c #419D14",
"h c #429D1A",
"j c #47A107",
"k c #49A307",
"l c #43A40D",
"z c #4AA509",
"x c #46A90F",
"c c #4BAA0E",
"v c #51AD0C",
"b c #54B10E",
"n c #58B50F",
"m c #44A412",
"M c #49A615",
"N c #46A811",
"B c #4CAD11",
"V c #46A119",
"C c #4AA519",
"Z c #4EAA19",
"A c #50AE15",
"S c #53AF18",
"D c #4FB011",
"F c #54B412",
"G c #59B712",
"H c #57B813",
"J c #5CBB14",
"K c #55B218",
"L c #60BF15",
"P c #62C215",
/* pixels */
"etcl-><xBw45wxlkFB<>-<l6OwpDcemv,&<1Dl435axczbx<--1tO5,lFg,Bc;-<",
"kvPc#-<JJ<qO4<jzJJ1>##& O>pPGknL,#<pPD<3Oq<kvPB<&#&#.5<BPvzLG#&<",
"JFl1>--pl<qo4<cJNp<<>lFl1<<lBJBl<>&;pp<5O>pFnpp<><BFf1<plbJxp>>&",
"PG<<<-#-<pw.4<FPp<>>>cPvz<<<xPc><<#&<<14O-1PH<<<<<HJzl<<<FL<<<>#",
"PG#;<<<<pJF>><FPpw.5->pnJ1>#pPl#><<<<NJN;<pPH<4.3;<lJF<-#AL<&<<<",
"GB&-<>w<1HDp1<NKf107&-<HLp>#1G1#><-q<lJxp<<ZBpw74#>pPF<-#xb>&>>-",
"##<;&2O-<<lPc&5OfzPZo4<FLp>#@#>>--55<<<DP1%.6jbPuO-pPF<>@#&>>-3.",
"&<xt3364q-lPm237cvcio3>xAw&##=1Bq3664-<DPy36wbvc0o4<Dl4&#&-xp333",
"<xPVoq<5O&tPVoq<JH&$. #;>..&;<DPsO<qo5-BLss<pPB@ .@&>qo3*><JGO6<",
"plNroiDr45qNuOq<JJ<&2%#lBw4281lx7sBNq62rN6O<pPB>%2@;Dmq32,jlmO0D",
"kj<4oCPp-O5<4Oq1JJ<>###bLp>o8kp<5sJHp4o4<55-pPD<&##;JHp3ogk1qOuP",
"JF<4oupFDs5<mKa<ppjzncdpmFZ.uJN<5OtNHao4<ZZpppjkAFlppNHioMJ1>O7p",
"JF<qOq1JJs3<NJp<<<lbJbj1<HK6iJN>65>pPCOqpFJ<<<pznJcj<pPVsAJpw.6<",
"p<<<><<HJ<<<p1-#<pJn11<<<paJD11<<<<pPD><>p<#-<cPc<1<<11NJp<<<<<<",
"<<<<<-qDF1<lp1>#-pPF<<<qq>pPD<<<>>qtHN<ppp<---cPx><<q-<BPN<<<<-q",
"<<<>-5Oq1<lPbjp<#;PF<<<5O&<PF<<<-&O5<p<DPcj<-@lPx<<>o &NPx<<<-3O",
"<1ct23444<1BFb1>=>Bx<pce838Bl<lN43344q<xFvv<--1Dp<xl842tB1<Nm336",
"<pPCOq<..<<<cPf=<<<<<DPvl5.<<<DP0O>qO3<<<JJ;-<<<<<JPztO4<<1JF+5<",
"->xyoaDw-<>&xPf#BB1>&1NFFsO<<&1N6sBZ4><>&FJ&<Fx<--lxHCo4<;-laOyF",
"#&<&oZPp<<<#lP1#FJ<>#-<HLs5<;@;<5sJH1<<-&FJ&,LB<-#-pPZO4<;#<-OiP",
"-<<<wKPp1HFdjp<&77<<><<HL1-<<<<<wrJJ<NJcdjp-&sw<<><pPD-><-<<<qaP",
"pp<<pBKppJHcl>=%.2<pp<<DHp<<<p<<ppKD<NJbz1>&3.41<p<pHD<<<p1<1pNH",
"PF<NPu+q<<lPB>6.q<jvPB<<p<<<xPx<FJ66<<<FPp>.5>1jnJp<1<<<<FJppPC+",
"HDxNHhyqq-pPB>5O>1cvHl<<<pp<pFBmDKuyq->DPp-O2<lbnFp<<1xp<BDxNFCy",
"<pPD<DP7.%,Px# .>pPF<<<<1JJ<<<DPppPKo5#BP,@OX>BPx<<<<lPB<<pHJ<aP",
"<1Vt<DPy3#;x,@$2>aPF<44>>NBDl<thr1JF6&#,l=@23<cPx>44-1DBBp<iarxP",
"<-o6<FPp<#######-pPD<4O%&<pPF<2.qpJH<-#@####&<xPx>+.&-<cPN>55>xP",
"66$q<px>& 2#1Djd<1xp<gS05<<lt534><xp>3 %&ccd:<plp<NC54<1pq634<pN",
"O5;>><<;&.5&mPvkp<<<<cL0.-p<qO3;<<<<;3.3&FJzj1<<<<HF+X<<,5.--<<<",
"fxJc#><FFr4.4pjkHH<>&>,2OqpJF1BJ<#<pJN-3.rlzcJB<&#<w.5<cJxlnD--<",
"cvJl#-<FH<qO4<lcHF<<#;<76-aHFcbJ<#-pHB<6Oq1zvJB<=#<=54<cJbcJD---",
"PG1<<-#<1<qO3<FLp<<<<cPcj1<<cPc<<>#-11<6O-pPF<<<<<GLkp<<1FLp<<-#",
"PF<<<--<<pa54<FPa<4q>lFvc1<;xPx-<<--<pxw6wpJH<w4-<cFcc<<-bP1><>&",
"PF#-<<<<pPH<<<FPp-.5&><JPp>#lPl#><<<<xPN<>1PH<4o3-<pPH<-#FJ;#<<<",
"ll---q4><cBDp>ti1lVu3&<FJp>#;l,---44<pBBB1>itjmVw5-pJF<-#,l>-;-4",
"##<-&5Oq<<lPc&5OfcPZo4<FPp>#@@;<-&O5<<<FP<&O6zbPuO-pPH<-@##<<&3o",
"-1Hm 4q55&pPV 4wFG:8o2*1p65&&>xH75q45$-DP0541Jc16O%;lt53&;<bB53q",
"<lJho4155&<Pho4<JG*$O2#<<5.&;,DJ0O<r.5&BJ9+>lPx@ O%#<wO3&>1JKO61",
"jjpyOCJ1q.6p7O-1JJ<=@@#BJ1q.8dp15sFFw4Oq15.<lPv>&%@=JD>4 ,lpw.uJ",
"cl<4oVJm1.5<w0w<FF1,<;-BHptO8vp<5sKHpwO4<70>pJc1<<*,FFp0ogc1-OyJ",
"PJ<4O4pHJO5<NPl<<1jvPbk1pJKOuPx<5O<pLVoq<HJp<<pkGPcj<lPhoZPp-O61",
"Dc<q3q<HJ47<mF1><1vbbxd1<DBuVFp<46<pPB6q1BD--<lbFDjf<pDVuMD<>6q<",
"<<<<<<<JP<<<<<&#<pJF<<<<<<pPD<<<<1<aPF<<<<>#&<cPl><<<<<BPx<<<<<<",
"<<<<-44mx<pDxp<--<PF<<<46=1LF<<<--6wxp<pDlp-;-xPx<<>44;BPm<<<--6",
"<<1--5oq<<mPnk1<&;JF<<<6.%1LD<<<-&O5<<<DPck1>#lPx<<<O &NPa<<<&3o",
"<aHm 4-56><pvJ1;><lp<xJle56lp<xH75q454<plnF>->1p<<FFfe.wp<1FD55q",
"<pJVoqp55<<>cPf&<1<<>cJvl55><>BLyOtrO6<<<JJ;-11<<<FJc1o4p<<HD.6p",
"#-p7oCJa><>#xP1&FJ<>#<1FJ55<>#-p5sFF<<<-#HJ&1Jc<&&<lJCo3<-#1rOuL",
"&#<q5ZPp<pp;ln<&ZB<>&><HJ76<>--<66JH<pp,;cF=>Sl<-&>pLD5q<-&<-5iP",
"<<<<<FPppPJjp<;&.5><<<<HPp<<<<<<<tJJ<xPvk1>&4O4<<<<pLH<><<<<<>NP",
"xx<pNCV1pxDHl<&3341pcp<xD<<<pBp<xNCa<pDbbp>427w1xc<<Bx<<<pB<pxNV",
"PH<xPuoq><pPD<5.>1kbPc<<<<<<NPx<JJs5<<<FPl>O <:kGPp<<<<<<HPppPCO",
"NxDDNNVy2=1Pc&2OwpnDx1<<<DD<pxDDNNCV64&cP,#O5<lJcx1<<pDx<pNDDNNC",
"<pPD<DP7.%1Pl@ .-pPF<<<<<JJ<<<DPppJKO #cJ<@.5<BPl<<<<xPB<<pHH<NP",
"<w77<DPt=#=;=#%%>pPF<454-plHN1qs-pLHw>#;>=@%&<cPx-55&-aDHa<77<xP",
"<q.4<DJp>%@@&;&&>1JF<8s4&<pJD-6.qpHD>>%@@=;#><xJx<76&&<NLpq55ppJ",
".5&-<1<-4. #lJvj<<<<<DJ0O><18.7#<<1<&3.3-FJzj<<<<1GK53<<p6.%&<<1",
"601,><<<1623tJckxp<<-lK7O><lt6w1<-<<1w223BFkllp<><BA+5<paq4,1>><",
"kcPc#-pJJ1w.4<fkLJ<>##- O>pPnkFP<#>lPb<6Oq<jvPc<&##%O5<cPDzLF&-<",
"nbDp---NB<4O7<cnDc<>-1xew<1BvnvB<;-<Bl<7O-pbbDx<>;lm8w<pDDnDN>-;",
"PG<<<-#-<<qO3<FPp<<<<BPvl,<<NPB<<<##<<<6OqpJH<<<<1JPcj<<<FP1<<>#",
"PG-;<<-<1FNw><FLp>54-pxbG1>&fPl&<<><<pFa4>pPH<q5&-pNHc<>&bL<-<<>",
"LA#-<<<<1JF1<<DJp>55&-<HLp<#1Lp@-<<<<xPx1<1JF<4+3&<pPF<-#cJ;#<><",
";<<;-55><pNJl&70flKV.q<bL1>#*<><--56<<pDJ<&70jBKy.-pPF1;#;>><-3 "
};
