/* XPM */
static char *_d45bceda7bd4f4ded8e6efa7ebc9a92As6yJyJ6ZwovhPkw[] = {
/* columns rows colors chars-per-pixel */
"64 64 110 2 ",
"   c None",
".  c #371D07",
"X  c #391D07",
"o  c #371D08",
"O  c #3A1F09",
"+  c #3D210A",
"@  c #3C2411",
"#  c #44260D",
"$  c #4A2A0F",
"%  c #452A16",
"&  c #4B2B11",
"*  c #472C18",
"=  c #492F19",
"-  c #522E15",
";  c #4B301A",
":  c #543116",
">  c #593517",
",  c #553219",
"<  c #593519",
"1  c #5D391B",
"2  c #623D1D",
"3  c #693F1F",
"4  c #473222",
"5  c #493525",
"6  c #45372C",
"7  c #563720",
"8  c #513825",
"9  c #5A3A22",
"0  c #463B32",
"q  c #4F3E31",
"w  c #423E3C",
"e  c #663F20",
"r  c #683F20",
"t  c #46413E",
"y  c #564335",
"u  c #5A4536",
"i  c #5C4A3D",
"p  c #654224",
"a  c #6C4222",
"s  c #65472F",
"d  c #734625",
"f  c #7B4C29",
"g  c #7F502B",
"h  c #6D4E37",
"j  c #684931",
"k  c #7B5030",
"l  c #7B5131",
"z  c #7D5232",
"x  c #464340",
"c  c #414344",
"v  c #414345",
"b  c #424344",
"n  c #434444",
"m  c #434445",
"M  c #414446",
"N  c #424446",
"B  c #434547",
"V  c #444445",
"C  c #444545",
"Z  c #494441",
"A  c #494643",
"S  c #4B4743",
"D  c #4C4540",
"F  c #4C4641",
"G  c #4C4642",
"H  c #4D4743",
"J  c #4D4845",
"K  c #4C4946",
"L  c #4D4A47",
"P  c #4E4A47",
"I  c #474849",
"U  c #48494A",
"Y  c #49494A",
"T  c #4C4C4D",
"R  c #4C4D4D",
"E  c #4C4D4E",
"W  c #59544D",
"Q  c #5A554D",
"!  c #505152",
"~  c #515252",
"^  c #525253",
"/  c #5D5D59",
"(  c #605C51",
")  c #6C6657",
"_  c #6C6757",
"`  c #6D6757",
"'  c #66665D",
"]  c #6D6758",
"[  c #6D6858",
"{  c #6E6858",
"}  c #6F6958",
"|  c #717163",
" . c #717164",
".. c #737264",
"X. c #81512C",
"o. c #81512D",
"O. c #83522D",
"+. c #85532D",
"@. c #86532D",
"#. c #84532E",
"$. c #85532E",
"%. c #87542D",
"&. c #85542E",
"*. c #85542F",
"=. c #86542E",
"-. c #86542F",
";. c #87552F",
":. c #88542E",
">. c #88552E",
",. c #885630",
/* pixels */
"                                                                                                                                ",
"                                                                                                                                ",
"                                                                                                                                ",
"        O O O O O O O O                                                                                 O O O O O O O O         ",
"        O O O O O O O O                                                                                 O O O O O O O O         ",
"        O O O O O O O O                                                                                 O O O O O O O O         ",
"        # # # # # # # #                                                                                 # # # # # # # #         ",
"O O O + & & & & : , , - + O O O                                                                 O O O + & & & & : , , - + O O O ",
"O O O + & & & & : , , - + O O O                                                                 O O O + & & & & : , , - + O O O ",
"O O O + & & & & : , , - + O O O                                                                 O O O + & & & & : , , - + O O O ",
"O O O + # # # # & & & & + O O O                                                                 O O O + # # # # & & & & + O O O ",
"O O O O O O O O O O O O O O O O                                                                 O O O O O O O O O O O O O O O O ",
"O O O O O O O O O O O O O O O O                                                                 O O O O O O O O O O O O O O O O ",
"O O O O O O O O . . . . O O O O                                                                 O O O O O O O O . . . . O O O O ",
"O O O O + # # # : : : - + O O O                                                                 O O O O + # # # : : : - + O O O ",
"O O O + & & & : f $.&.f # O O O O O O O O O O O O O O O O O O O O O O O O O O O O O O O O O O O O O O + & & & : f $.&.f # O O O ",
"O O O + & & & : f &.&.f # O O O O O O O O O O O O O O O O O O O O O O O O O O O O O O O O O O O O O O + & & & : f &.&.f # O O O ",
"O O O + & & & : f &.:.f # o O O O O O O O O O O . . . . . . . . . . . . . . . . O O O O O O O O O O O + $ & $ : f &.&.f # O O O ",
"O O O + & - & , j h h s # X O O # # # # & & & & : : : : : : : : : : : : : : : : & & & & # # # # O O O + 4 5 4 8 f $.&.f # O O O ",
"O O O + - , : , t m C w @ X O + - , : , 2 2 2 e f #.#.#.#.#.#.#.#.#.#.#.#.#.$.f e 2 2 2 , : , - + O X @ w C v G l $.&.f # O O O ",
"O O O + - , : , t m m w @ X O + - , : , 2 2 2 p g $.$.$.$.$.$.$.$.$.$.$.$.$.$.g p 2 2 2 , : , - + O X @ w C v G l $.&.f # O O O ",
"O O O + - , : , t m m w @ X O + - , , < 2 2 2 p #.&.&.&.&.&.&.&.&.&.&.&.&.&.&.#.p 2 2 2 < , , - + O X @ w m v G z :.,.f # . O O ",
"O O O + & & & = Z Y Y x @ X O + & & & & : : : : 3 p r r r r r r r r r r r r p 3 : : : : & & & & + O X @ x Y I G p 3 p 2 # O O O ",
"O O O O O O X @ K ! ! K @ X O O O O O O O O O O O O O O O O O O O O O O O O O O O O O O O O O O O O X @ K ! ! K @ X O O O O O O ",
"O O O O O O X @ K ! ! K @ X O O O O O O O O O O O O O O O O O O O O O O O O O O O O O O O O O O O O X @ K ! ! K @ X O O O O O O ",
"O O O O O O X @ K ! ! K @ . O O . . . . . . . . . . . . . . . . . . . . . . . . . . . . O O O O O O . @ K ! ! K @ X O O O O O O ",
"O O O O # # # * Q / / Q ; $ & & : : : : : : : : : : : : : : : : : : : : : : : : : : : : & & & & & & $ ; Q / / Q * # # # O O O O ",
"O O O + - , - 9 ) | | [ p 2 2 e f $.#.#.#.#.#.#.#.#.#.#.#.#.#.#.#.#.#.#.#.#.#.#.#.#.#.f e 2 2 2 2 2 2 p [ | | ) 9 - , - + O O O ",
"O O O + - , - 9 [  .| [ p 2 2 p g $.$.$.$.$.$.$.$.$.$.$.$.$.$.$.$.$.$.$.$.$.$.$.$.$.$.g p 2 2 2 2 2 2 p [ |  .] 9 - , - + O O O ",
"O O O + - , - 9 ] | | [ p 2 2 p #.&.&.&.&.&.&.&.&.&.&.&.&.&.&.&.&.&.&.&.&.&.&.&.&.&.&.#.p 2 2 2 2 2 2 p [ | | ] 9 - , - + O O O ",
"O O O + & - - 7 )  .| [ 9 > < 1 a d a a d d d d d d d d d d d d d d d d d d d d a a d a 1 < < < < < > 9 [ |  .) 7 - - & + O O O ",
"O O O + & & $ , )  . .) , $ & & & & & & : , , , , , , , , , , , , , , , , , , : & & & & & & & & & & $ , )  . .) , $ & & + O O O ",
"O O O + & & $ , )  . .) , $ & & & & & & : , : : : : : : : : : : : : : : : : , : & & & & & & & & & & $ , )  . .) , $ & & + O O O ",
"O O O + & & & , )  . .) , & & & & & & & : , , , , , , , , , , , , , , , , , , : & & & & & & & & & & & , )  . .) , & & & + O O O ",
"O O O + # # # = ( ' ' ( = # # # # # # # & & & & & & & & & & & & & & & & & & & & # # # # # # # # # # # = ( ' ' ( = # # # + O O O ",
"O O O O O O X @ K ! ! K @ X O O O O O O O O O O O O O O O O O O O O O O O O O O O O O O O O O O O O X @ K ! ! K @ X O O O O O O ",
"O O O O O O X @ K ! ! K @ X O O O O O O O O O O O O O O O O O O O O O O O O O O O O O O O O O O O O X @ K ! ! K @ X O O O O O O ",
"O O O O O O X @ K ! ! K @ X O O O O O O O O O O O O O O O O O O O O O O O O O O O O O O O O O O O O X @ K ! ! K @ . . . O O O O ",
"O O O O # # # % Z E E Z @ X O O O O O O O O O O O O O O O O O O O O O O O O O O O O O O O O O O O O X @ Z E E K , : : - + O O O ",
"O O O + - , : , t m C w @ X O O                                                                 O O X @ w C v G l $.&.f # O O O ",
"O O O + - , : , t m C w @ X O O                                                                 O O X @ w C v G l $.&.f # O O O ",
"O O O + - , : , t v m w @ X O O                                                                 O O X @ w m m G l $.&.f # O O O ",
"O O O + & - - , u i i y + X O O                                                                 O O X + 6 0 0 q f $.&.f # O O O ",
"O O O + & & & : f $.&.f # O O O                                                                 O O O + & & & : f &.&.f # O O O ",
"O O O + & & & : f &.&.f # O O O                                                                 O O O + & & & : f &.&.f # O O O ",
"O O O + & & & : f &.&.f # O O O                                                                 O O O + & & & : f &.&.f # O O O ",
"O O O + & & & : d f f a # O O O                                                                 O O O + & & & : d f f a # O O O ",
"O O O + & & & & 1 2 2 1 + O O O                                                                 O O O + & & & & 1 2 2 1 + O O O ",
"O O O + & & & & 1 2 2 1 + O O O                                                                 O O O + & & & & 1 2 2 1 + O O O ",
"O O O + & & & & 1 2 2 1 + O O O                                                                 O O O + & & & & 1 2 2 1 + O O O ",
"O O O + & & & & < 1 1 < + O O O                                                                 O O O + & & & & < 1 1 < + O O O ",
"O O O + & & & & : , , - + O O O                                                                 O O O + & & & & : , , - + O O O ",
"O O O + & & & & : , , - + O O O                                                                 O O O + & & & & : , , - + O O O ",
"O O O + & & & & : , , - + O O O                                                                 O O O + & & & & : , , - + O O O ",
"O O O + & & & & - - - & + O O O                                                                 O O O + & & & & - - - & + O O O ",
"O O O + & & & & & & & & + O O O                                                                 O O O + & & & & & & & & + O O O ",
"O O O + & & & & & & & & + O O O                                                                 O O O + & & & & & & & & + O O O ",
"O O O + & & & & & & & & + O O O                                                                 O O O + & & & & & & & & + O O O ",
"O O O + # # # # # # # # + O O O                                                                 O O O + # # # # # # # # + O O O ",
"        O O O O O O O O                                                                                 O O O O O O O O         ",
"        O O O O O O O O                                                                                 O O O O O O O O         ",
"        O O O O O O O O                                                                                 O O O O O O O O         ",
"        O O O O O O O O                                                                                 O O O O O O O O         ",
"                                                                                                                                "
};
