/* XPM */
static char *e2728c73f91a43f38cd865be1cc551818dpcgRg7KgTqiYyF[] = {
/* columns rows colors chars-per-pixel */
"64 64 184 2 ",
"   c None",
".  c #1C0014",
"X  c #1E0118",
"o  c #200417",
"O  c #25001B",
"+  c #2C001E",
"@  c #250D1A",
"#  c #2E0122",
"$  c #250924",
"%  c #2F062A",
"&  c #2A0B2A",
"*  c #270420",
"=  c #310324",
"-  c #3B0727",
";  c #30062A",
":  c #310A2D",
">  c #3E0829",
",  c #380827",
"<  c #2E1920",
"1  c #311D22",
"2  c #340C33",
"3  c #390C3A",
"4  c #380A38",
"5  c #2F1133",
"6  c #341136",
"7  c #35143B",
"8  c #39123D",
"9  c #34183E",
"0  c #3A1335",
"q  c #322023",
"w  c #450C2C",
"e  c #480E2D",
"r  c #46152D",
"t  c #4D0D34",
"y  c #540D35",
"u  c #5B0E39",
"i  c #590E37",
"p  c #441334",
"a  c #4E1232",
"s  c #4E1A32",
"d  c #401938",
"f  c #551635",
"g  c #5E1B39",
"h  c #591736",
"j  c #650F3D",
"k  c #64113D",
"l  c #68123F",
"z  c #5F203F",
"x  c #68223F",
"c  c #3C1543",
"v  c #361B44",
"b  c #381D46",
"n  c #3D1748",
"m  c #3B1D4A",
"M  c #3B214C",
"N  c #3E2554",
"B  c #3F2758",
"V  c #401949",
"C  c #691340",
"Z  c #452249",
"A  c #4F264D",
"S  c #42294A",
"D  c #4B2847",
"F  c #562F4D",
"G  c #5D2641",
"H  c #432356",
"J  c #42265A",
"K  c #42295C",
"L  c #45315D",
"P  c #61294D",
"I  c #6A3E56",
"U  c #653A54",
"Y  c #743653",
"T  c #6E2E4A",
"R  c #452D63",
"E  c #482B62",
"W  c #522960",
"Q  c #4A3967",
"!  c #47316A",
"~  c #47326B",
"^  c #48336D",
"/  c #4A326E",
"(  c #49346F",
")  c #49336E",
"_  c #463067",
"`  c #51306F",
"'  c #4A3571",
"]  c #4A3571",
"[  c #4B3A73",
"{  c #513777",
"}  c #553779",
"|  c #52397A",
" . c #553B77",
".. c #654346",
"X. c #734459",
"o. c #784558",
"O. c #4E4162",
"+. c #534D6E",
"@. c #544B7D",
"#. c #565678",
"$. c #755462",
"%. c #5E617F",
"&. c #832E4C",
"*. c #863846",
"=. c #913B4B",
"-. c #8A2A50",
";. c #8D3251",
":. c #923553",
">. c #9A3857",
",. c #A23D5D",
"<. c #A93F5F",
"1. c #9C4557",
"2. c #984446",
"3. c #A94752",
"4. c #A4435C",
"5. c #AA405F",
"6. c #BA5A52",
"7. c #80516F",
"8. c #AC4161",
"9. c #AF4B61",
"0. c #B24C65",
"q. c #AE5267",
"w. c #BB5267",
"e. c #B65469",
"r. c #B8546A",
"t. c #B85C68",
"y. c #8E6178",
"u. c #B76D6F",
"i. c #BF6572",
"p. c #B77675",
"a. c #C1615A",
"s. c #C15866",
"d. c #C8646E",
"f. c #D07C6E",
"g. c #C16572",
"h. c #C87477",
"j. c #DE7C75",
"k. c #E57561",
"l. c #C8827E",
"z. c #D28273",
"x. c #DA907E",
"c. c #E68B7A",
"v. c #EB8D7C",
"b. c #E78479",
"n. c #ED917E",
"m. c #EC987C",
"M. c #563F83",
"N. c #5A3E85",
"B. c #5E448F",
"V. c #5F4590",
"C. c #614693",
"Z. c #634896",
"A. c #644A99",
"S. c #5F6482",
"D. c #697998",
"F. c #9D91AC",
"G. c #B0A5B9",
"H. c #D88D85",
"J. c #F49580",
"K. c #F69982",
"L. c #FD9C83",
"P. c #F89680",
"I. c #DDB49F",
"U. c #FEA286",
"Y. c #FBA68A",
"T. c #E8AB95",
"R. c #EFB69B",
"E. c #F1BA9D",
"W. c #F6B696",
"Q. c #E8BBA0",
"!. c #F2BDA0",
"~. c #FDC29E",
"^. c #EFC7AB",
"/. c #FBC6A2",
"(. c #FECDA6",
"). c #FBCEAA",
"_. c #F4C1A2",
"`. c #FFD0A7",
"'. c #FED1A9",
"]. c #EEC6BF",
"[. c #FED7B6",
"{. c #FDD8CA",
"}. c #EDECEE",
"|. c #FFFFFC",
/* pixels */
"                                                                      + = 3 3 3 3                                               ",
"                                                                    2 2 8 n c 3 3                                               ",
"                                                            + # + + c ^ ^ ^ R 3 3                                               ",
"                                                            % % : : m ( ^ _ K 3 3                                               ",
"                                                    + + + # 7 v J ! ^ ( R M b 3 3 3 3 3 4                                       ",
"                                                    # # # # 7 v J ^ ^ ! K v b 8 3 c c 3 3                                       ",
"                                                + # 4 4 4 4 3 3 b M M M M v M R ! N.N.^ R n 4                                   ",
"                                                # = 3 3 3 3 3 3 c v v v v v N ! ' B.C.] ! n 4                                   ",
"                                            + 2 J J R K m v v v v v v v v v v c c 8 8 2 2 ; =                                   ",
"                                            + 2 ^ ' ' ^ M v v v v v v v v v b 3 4 # + + + + #                                   ",
"                                            + 2 ^ ( ( ( { | R K N v N R M : 7 J H 9 6 % # +                                     ",
"                                            + 2 ^ ( ( ' V.Z.| ( B v J ' N # 2 ^ ! M v ; +                                       ",
"                                          2 b m J B m m { M.R J v 2 H M.E # : B J J B 7 2 %                                     ",
"                                        + 8 ' R m v # # R ( N v 2 + H A.` # ; v M ! ^ M v : #                                   ",
"                                        + 6 K B 7 6 2 2 B K v 6 ; + H A.` # % 6 9 J R E E 2 +                                   ",
"                                        # : v 9 # % v v v v % + # + H A.` # + # % v M N.Z.c +                                   ",
"                                        # : v 9 # = v v 9 9 p a - + V } W a e = # 7 v N.Z.c +                                   ",
"                                        # : v 9 # % v v % # &.8.g + # # f 5.;.= # # ; } Z.c +                                   ",
"                                        # : v c s s F F p w >.w.Y D d % z w.1.e > = = } B.c +                                   ",
"                                        # : v U c.v.n.c.9.,.j.P.].}.F.R 7.P.b.4.:.- # R ' 7 +                                   ",
"                                        # : v I K.L.L.P.s.0.v.U.{.|.G.[ y.U.n.r.4.e , K ! 7 +                                   ",
"                                        # : v I K.L.L.L.W.R.~./.).[.^.I.Q././.E.T.4.:.A M : #                                   ",
"                                        + : v I J.P.L.L./.`.(.(.(.(.(.`.`.`.`.`.E.e.,.A v : #                                   ",
"                                          % % d I o.t.d.E.(.(.(.(.(.(.(.(.`.E.h.t.g a c v : #                                   ",
"                                            + % v Z ,.0.R.(.(.(.(.(.(.(.(.(.T.0.>.- # 9 v : +                                   ",
"                                              % : 0 P Y z.m.E.(.(.(.(.(.~.W.x.x h = # : : %                                     ",
"                                                + = v Z a.k.W.`.`.`.`.`.~.U.f., + # # # +                                       ",
"                                              + # = 2 0 =.3.h.H.H.H.l.p.u.t.1.= # # # +                                         ",
"                                        # # + + + + + = u C >.8.8.8.-.j k l u = # # #                                           ",
"                                        # ; 7 7 7 7 7 8 t y T &.4.s.:.k k y t = # + +                                           ",
"                                        + 8 ( ( ( ( ( _ : + # + 2.k.3.l y # # # +                                               ",
"                                        + 7 K K K K K J 7 2 2 2 *.6.*.i t 2 : # +                                               ",
"                                            # # # # # ; K ^ ^ ! c = = # 7 ! J # +                                               ",
"                                            # # ; ; # # J R R R c ; ; ; 9 R H # +                                               ",
"                                            + 2 R J % # ; ; ; ; m R R R N ; = # #                                               ",
"                                            + 2 ! R % + # # # # N [ ( ! H ; = # #                                               ",
"                                            + : M v O o 6 v 9 9 +.D.O.: S S.+.= +                                               ",
"                                            + ; v 9 X X 9 m v v #.D.O.+ S D.%.= +                                               ",
"                                            + ; v 9 X X 9 v v v Q @.L 7 N @.Q = +                                               ",
"                                            + ; v 9 X X 9 v v v K ^ J v B ^ J # #                                               ",
"                                            + ; v 9 X X 9 v v v K ' K v B ( K # +                                               ",
"                                            + ; v 9 X X 9 v v v K ' K v B ' K # +                                               ",
"                                            + ; v 9 o X 9 m v v m m m v m m c # #                                               ",
"                                            + % v 9 X . 9 v v v : + 2 v 7 + + # #                                               ",
"                                            f G $.$.....X.o.D v 6 ; 7 v 9 : ; # #                                               ",
"                                            <.i.(.).).(.Y.K.X.v v v v v v v 9 # #                                               ",
"                                            5.g.(.`.`.(.K.b.U 6 9 9 9 9 9 9 6 * +                                               ",
"                                            8.g.(.`.`./.g.8.r . X X . . . X . . .                                               ",
"                                            <.g.!._._.R.q.>.r X X . . . . . . . .                                               ",
"                                                r.r.r.q.f > 7 v $ . o + O . .                                                   ",
"                                                5.8.8.,.w # 9 v & . O # + . .                                                   ",
"                                                        = # 9 v & . O # + . .                                                   ",
"                                                        # # 7 v & . O # + . .                                                   ",
"                                                    + # 6 7 & $ * + O o o                                                       ",
"                                                    + # v v $ . O # O . .                                                       ",
"                                                    + # 9 v $ . O # O . .                                                       ",
"                                                    + # 9 v $ . O # O . .                                                       ",
"                                                    + # 9 v $ . O # O . .                                                       ",
"                                                    + # v v $ . O # O . .                                                       ",
"                                                    + + 5 6 O . O + o . .                                                       ",
"                                                    . . . . . . . . . . .                                                       ",
"                                                    . . o o o o . . . . .                                                       ",
"                                                    . . < 1 1 1 @ . . . . . .                                                   ",
"                                                    . . < q q q @ . . . . . .                                                   "
};
