/* XPM */
static char *f54b7e2756824a9cc4aecf9bfddbd443tYlbuac0XuPwnRNO[] = {
/* columns rows colors chars-per-pixel */
"64 64 149 2 ",
"   c None",
".  c #1D0014",
"X  c #200217",
"o  c #23021B",
"O  c #2C001E",
"+  c #270F1B",
"@  c #29121C",
"#  c #230721",
"$  c #2E0121",
"%  c #260824",
"&  c #2F0628",
"*  c #2C0C2B",
"=  c #300326",
"-  c #3E0E26",
";  c #32062B",
":  c #32092D",
">  c #2F1B21",
",  c #3F1027",
"<  c #311E22",
"1  c #350731",
"2  c #340D33",
"3  c #380937",
"4  c #370A38",
"5  c #390B3A",
"6  c #2E1234",
"7  c #331237",
"8  c #35143B",
"9  c #39123E",
"0  c #332124",
"q  c #4B102F",
"w  c #4E1131",
"e  c #521836",
"r  c #371740",
"t  c #3B1442",
"y  c #371B43",
"u  c #381D46",
"i  c #3A1E4A",
"p  c #3F1E50",
"a  c #3B214D",
"s  c #3E2352",
"d  c #3F2758",
"f  c #40164A",
"g  c #411A4B",
"h  c #411F52",
"j  c #5D2844",
"k  c #412256",
"l  c #422559",
"z  c #49255D",
"x  c #42295C",
"c  c #772944",
"v  c #7A2A45",
"b  c #633644",
"n  c #6A3746",
"m  c #673B4E",
"M  c #673A53",
"N  c #6B3F56",
"B  c #462A62",
"V  c #442B62",
"C  c #432C60",
"Z  c #452D63",
"A  c #442E63",
"S  c #442E64",
"D  c #472E64",
"F  c #472F67",
"G  c #462D66",
"H  c #452E65",
"J  c #4B2861",
"K  c #462F68",
"L  c #4B2E6A",
"P  c #4F2E6A",
"I  c #453067",
"U  c #463067",
"Y  c #473069",
"T  c #47316B",
"R  c #47326B",
"E  c #453068",
"W  c #47316A",
"Q  c #48316B",
"!  c #48326D",
"~  c #4A326D",
"^  c #49336E",
"/  c #49346F",
"(  c #48346E",
")  c #49336E",
"_  c #493570",
"`  c #4A3571",
"'  c #4B3773",
"]  c #4E3673",
"[  c #4C3773",
"{  c #4A3570",
"}  c #4F3978",
"|  c #543578",
" . c #57377C",
".. c #503A79",
"X. c #523C7D",
"o. c #A53E5D",
"O. c #AA3F5E",
"+. c #AC3F60",
"@. c #A7405E",
"#. c #AA405F",
"$. c #AD4261",
"%. c #B04563",
"&. c #B44B65",
"*. c #B94E66",
"=. c #B9566B",
"-. c #B7586B",
";. c #BA5A6D",
":. c #C36A75",
">. c #D26D71",
",. c #CA767B",
"<. c #EC887C",
"1. c #F38F7E",
"2. c #F1917E",
"3. c #563E81",
"4. c #583E82",
"5. c #593F85",
"6. c #5B3E85",
"7. c #574084",
"8. c #5A4086",
"9. c #5B428A",
"0. c #5D4089",
"q. c #5D408A",
"w. c #5C438C",
"e. c #5F438D",
"r. c #5F438E",
"t. c #5F458F",
"y. c #5F4691",
"u. c #60448F",
"i. c #604691",
"p. c #634795",
"a. c #614794",
"s. c #634896",
"d. c #634997",
"f. c #644A99",
"g. c #644998",
"h. c #D18080",
"j. c #F39582",
"k. c #F99C83",
"l. c #F7AC8F",
"z. c #E3A492",
"x. c #E7AA96",
"c. c #E9AE98",
"v. c #F1BA9E",
"b. c #F6C19F",
"n. c #F5C5A4",
"m. c #FAC7A4",
"M. c #F7CCA6",
"N. c #FCCFA9",
"B. c #FFD4AB",
/* pixels */
"                                                                    4 4 4 4 4 4 4                                               ",
"                                                                    9 t t t 5 4 4                                               ",
"                                                        O $ O O O O i Q R R l 4 4                                               ",
"                                                        $ $ $ $ = = s _ ~ Q l 4 4                                               ",
"                                                    O & 8 y y y l B R _ l t 5 4 4 4 4 4 4                                       ",
"                                                    $ = y u u i Z ( ~ ( k 4 5 5 5 5 5 5 5                                       ",
"                                                O $ $ = 5 9 u u a s s s l x L  . . .| B x t 3                                   ",
"                                                $ $ $ = 3 5 u u u u u u x ( X.s.s.s.y._ R t 4                                   ",
"                                            O 7 s i 7 7 r r u u r 9 u u a d s g g g g r 9 ; ;                                   ",
"                                            O 9 ( S i u u u u u 5 4 r u u u 7 O O O O O O $ $                                   ",
"                                            O t 3.] i u u u u u p h u r y u y 2 9 l h = $ O                                     ",
"                                            O g s.4.i u u u u i S _ i 3 9 u u u x p.5.; O                                       ",
"                                            O g s.8.l s 8 7 u u x C k i u r i d S p.q.u 7                                       ",
"                                            O g p.w._ Z = $ y u u u x ( k 4 i ( } p.y._ R : O                                   ",
"                                            O g p.w._ S t 9 8 8 i s R ..k 1 t S ~ q.5.x l 7 2                                   ",
"                                            O g s.w._ ] t.q.2 $ l ( 7.s.z O : u s ( S ; ; x R                                   ",
"                                            O g t.5.S ~ i.w.5 = s Z 3.f.z O : y i I x = = x R                                   ",
"                                            O 9 _ S t f w.u.f 3 ; = P f.z O $ $ : i u $ $ y i                                   ",
"                                            O 7 R x 4 t q.w.f 4 = O J u.z $ $ $ ; u y $ $ 8 y                                   ",
"                                            $ 2 a y = 1 ~ _ t 4 = $ : 3 i Z i $ ; u y $ $ & &                                   ",
"                                            $ : u 8 $ ; S R t 4 ; = $ O u _ s $ ; u y $ $ $ O                                   ",
"                                            $ ; 9 2 $ ; a s 5 4 h l r 1 i _ s $ ; u y $ $                                       ",
"                                            $ ; 4 3 $ & y u 5 5 B _ i 4 h _ s $ ; u y $ O                                       ",
"                                              $ ; = $ = y u : ; i d t 4 u d y $ ; 9 7 $ O                                       ",
"                                                $ $ $ = y u = $ 8 u 9 4 9 u 7 $ = 4 3 $ O                                       ",
"                                                  O $ $ 9 9 = $ : 2 2 4 2 2 2 ; ; ; ; $                                         ",
"                                                    $ = 3 4 = $ $ $ 1 5 ; O ; 4 3 $ O                                           ",
"                                                  O $ $ : : $ $ $ $ ; 1 ; $ = 1 ; O O                                           ",
"                                                $ $ O O $ $ $ $ $ $ $ $ $ O $ $ O                                               ",
"                                              & $ = 2 2 ; ; $ $ $ $ = ; : 2 : $ $                                               ",
"                                            u 7 $ 2 R S i y = O $ $ 7 u d ~ s $ ; y y                                           ",
"                                          i a 8 $ 1 S S a i 2 ; : : r a x R i $ ; i i                                           ",
"                                      y y d R s $ ; i a I R K S S S R R x a 8 $ 2 R S i y                                       ",
"                                      y y d ~ s O & y i I R ( ( ( ( ~ R d y 7 O 2 R S u y                                       ",
"                                      & & 7 a 8 . X & : i s R ( ( ( x a 8 & $ . % a i ; &                                       ",
"                                      O O 2 u 6 . X O & y i S ~ ~ ~ d u 2 $ o . # y y $ O                                       ",
"                                      O $ 2 i 6 . X $ $ ; ; 2 2 2 2 : ; & $ o . # y y $ O                                       ",
"                                      O O 2 i 6 . X $ $ $ $ O O O O $ $ $ $ o . # y y $ O                                       ",
"                                    O 2 7 2 : % . o 7 2 $ $ $ $ $ $ $ $ : 7 * . X : 2 7 7 & O                                   ",
"                                  $ $ 7 i 2 $ O . # y y $ $ $ $ $ $ $ O 2 i 6 . X O & y u & $                                   ",
"                                  $ $ 7 i 2 $ O . # y u 7 2 2 2 2 2 2 2 8 u 6 . X $ = y y & $                                   ",
"                                  $ $ 7 i 2 $ O . # y u u u u u u u u u u i 6 . X $ = y y & $                                   ",
"                                  $ $ 7 i 2 $ O . o 7 8 u u u u u u u u y 7 * . X $ = y y & $                                   ",
"                                  O O 7 y 2 O o . X $ = y u u u u u u i 2 $ o . X O & y y & O                                   ",
"                                  n b m N j w - . X $ $ 8 8 8 8 8 8 8 8 : $ o . o q e M N b b                                   ",
"                              #.$.z.M.l.k.>.$.c . X $ $ $ $ $ $ $ $ $ $ $ $ o . - o.&.2.k.b.n.:.O.                              ",
"                              $.%.x.B.l.1.>.%.v . X O O O O O O O O O O O O o . , O.*.<.j.m.N.:.$.                              ",
"                              $.%.x.B.h.&.%.%.v . . . . . . . . . . . . . . . . , @.$.&.=.v.N.:.$.                              ",
"                              O.$.z.m.,.+.$.$.v . . . . . . . . . . . . . . . . - O.$.$.&.c.n.:.O.                              ",
"                                  -.;.&.$.#.        O O O O O O O O O O O O o         $.$.=.;.                                  ",
"                                  O.#.$.$.          $ $ $ $ $ $ $ $ $ $ $ $ O         #.$.$.#.                                  ",
"                                                    $ $ 8 8 o X X X * 8 : $ O                                                   ",
"                                                    O = y y o . . . 6 i 2 $ O                                                   ",
"                                                    O = y y o . . . 6 i 2 $ O                                                   ",
"                                                    O & y y o . . . 6 i 2 $ O                                                   ",
"                                                    O & y y o . . . 6 i 2 $ O                                                   ",
"                                                    $ = y y o . . . 6 i 2 $ O                                                   ",
"                                                    $ = y y o . . . 6 i 2 $ O                                                   ",
"                                                    $ = u y o . . . 6 i 2 $ O                                                   ",
"                                                    O $ 7 7 o . . . * 8 * O o                                                   ",
"                                                    . . . . . . . . . . . . .                                                   ",
"                                                    . . . X . . . . . X . . .                                                   ",
"                                                    . X > > X . . . @ < + . .                                                   ",
"                                                    . X < < X . . . @ 0 @ . .                                                   "
};
