/* XPM */
static char *be5d6289e23e4dbec5226ad8a720754ab0neCCZyvIk26X7A[] = {
/* columns rows colors chars-per-pixel */
"64 64 184 2 ",
"   c None",
".  c #1C0015",
"X  c #1F0219",
"o  c #200317",
"O  c #24011A",
"+  c #2C001F",
"@  c #230A18",
"#  c #2A141E",
"$  c #2D181F",
"%  c #2E0121",
"&  c #270A26",
"*  c #2A0826",
"=  c #2E0729",
"-  c #2B0E2E",
";  c #270421",
":  c #310325",
">  c #31062A",
",  c #3D0529",
"<  c #320A2D",
"1  c #390728",
"2  c #2B102F",
"3  c #321E23",
"4  c #3A1124",
"5  c #340C32",
"6  c #370B38",
"7  c #390C3A",
"8  c #370A33",
"9  c #2E1233",
"0  c #331136",
"q  c #34153B",
"w  c #39133D",
"e  c #35193F",
"r  c #322023",
"t  c #43072B",
"y  c #4A0E2E",
"u  c #4B152D",
"i  c #47162C",
"p  c #4F0B32",
"a  c #560F36",
"s  c #5B0F38",
"d  c #5A0E37",
"f  c #4B143C",
"g  c #46163B",
"h  c #521931",
"j  c #531636",
"k  c #630F3C",
"l  c #65113E",
"z  c #69123F",
"x  c #5F263E",
"c  c #652239",
"v  c #6E343E",
"b  c #673039",
"n  c #70313F",
"m  c #3C0F40",
"M  c #3A1542",
"N  c #361A42",
"B  c #381D46",
"V  c #3B1D4A",
"C  c #3B214D",
"Z  c #3E2453",
"A  c #3F2856",
"S  c #421C4D",
"D  c #471943",
"F  c #5F1949",
"G  c #421E52",
"H  c #731A44",
"J  c #791E47",
"K  c #48234B",
"L  c #412356",
"P  c #432559",
"I  c #422A5C",
"U  c #412C53",
"Y  c #53285D",
"T  c #47375D",
"R  c #6E234A",
"E  c #7B2547",
"W  c #653042",
"Q  c #723D4B",
"!  c #452D64",
"~  c #462F68",
"^  c #4E2D65",
"/  c #502B61",
"(  c #47326C",
")  c #47316A",
"_  c #48336D",
"`  c #49346F",
"'  c #49346E",
"]  c #4A3C69",
"[  c #5E3C68",
"{  c #4A3671",
"}  c #4B3571",
"|  c #4B3871",
" . c #543475",
".. c #523B75",
"X. c #56377A",
"o. c #543A7B",
"O. c #6E3F63",
"+. c #6F434D",
"@. c #72424D",
"#. c #7A515A",
"$. c #4C4367",
"%. c #4E4272",
"&. c #534A7B",
"*. c #595676",
"=. c #7B4D6D",
"-. c #765464",
";. c #6E4D75",
":. c #892D47",
">. c #8E3C42",
",. c #973959",
"<. c #A43E5B",
"1. c #AA3F5E",
"2. c #AA3F60",
"3. c #86454A",
"4. c #8D494E",
"5. c #994C4F",
"6. c #8F504D",
"7. c #9B5355",
"8. c #AB405F",
"9. c #B54B5D",
"0. c #B45551",
"q. c #B95952",
"w. c #BB505F",
"e. c #AC4060",
"r. c #B24662",
"t. c #B34E67",
"y. c #BE5260",
"u. c #B7546A",
"i. c #BC5C6E",
"p. c #B57A6F",
"a. c #BE6270",
"s. c #BC7977",
"d. c #B87775",
"f. c #D6695E",
"g. c #DE6F5F",
"h. c #E06F5E",
"j. c #E1725F",
"k. c #C5666C",
"l. c #DD7262",
"z. c #C36873",
"x. c #CD7A7D",
"c. c #C27875",
"v. c #DA7473",
"b. c #D67573",
"n. c #E57764",
"m. c #D88377",
"M. c #E68A77",
"N. c #EC8A7A",
"B. c #E88870",
"V. c #F08B7C",
"C. c #EB997E",
"Z. c #F6957C",
"A. c #553E82",
"S. c #5B3D85",
"D. c #5D428B",
"F. c #5E438D",
"G. c #5D438C",
"H. c #584086",
"J. c #5C5E81",
"K. c #624794",
"L. c #634897",
"P. c #654999",
"I. c #626A8A",
"U. c #646F92",
"Y. c #6A7C99",
"T. c #EF9985",
"R. c #F19C84",
"E. c #FE9D83",
"W. c #F69480",
"Q. c #DBB39F",
"!. c #ECA68E",
"~. c #FEA185",
"^. c #F2A48A",
"/. c #FDA88B",
"(. c #E5AC96",
"). c #EEB89D",
"_. c #FDB292",
"`. c #F0BA9E",
"'. c #FDC39E",
"]. c #F4C2A2",
"[. c #FBC6A3",
"{. c #FDCDA6",
"}. c #FBCFA8",
"|. c #FDD1A9",
/* pixels */
"                                              6 6 6 6 6 6 6                                                                     ",
"                                              6 6 M M M M M                                                                     ",
"                                              6 6 L _ _ _ L % + + + % +                                                         ",
"                                              6 6 G ~ ) { I < > > > > =                                                         ",
"                                      6 6 6 6 6 6 7 7 G ` ( ! ! B N N N = +                                                     ",
"                                      7 7 7 m m m 7 7 V ( ( _ ! B B B N > %                                                     ",
"                                  6 7 I ! o.S.S.S.} ! I C C C C B B w 7 : % + +                                                 ",
"                                  6 7 ! ` G.L.L.L.A.` I B B B B B B 7 6 : % % %                                                 ",
"                                  : > 8 6 M M S G L Z C B e < 5 B B N N e q V P e +                                             ",
"                                  % % + + + + < 6 w B B B e % > N B B B B B ! { N + +                                           ",
"                                      % % M V N M N B e 5 < % > I I 0 5 Z I ..H.G + +                                           ",
"                                      + % I { Z B B B 0 % % % < ) ~ < % I { H.P.P + +                                           ",
"                                      M N } A.! A N 0 < % % + 5 o...< % M V ' H.G + +                                           ",
"                                  + > ! { F.L.o.` N + % % % + 8 F.G.5 + + + Z { N + +                                           ",
"                                  q w Z L S.L.A.o.V + : t , + 8 F.G.5 % , t S ! M % +                                           ",
"                                  ( ! > : X.L.L.P.P + t z a + 8 F.F.5 : d z D B 5 % +                                           ",
"                                  ! I > : X.L.S.o.S + , s a y f  . .< % p s D B 5 % +                                           ",
"                                  B B = : X.L.S : % % % % j <.,.1 % % % : : q B 5 + +                                           ",
"                                  N e % :  .K.V + % % > > j r.<.h i 1 > : % w K g u u                                           ",
"                                  % : % % I } w + %     ! O.f.l.M.m.[ !     ,.,.k.N.M.                                          ",
"                                  + + % % P _ q +       ..=.l.n.E.T.;...    t.r.v.E.E.                                          ",
"                                      + % N C 5 + 4.E.!.Q.(.Z.E.'.[.Q.Q.].}.^.N.W.E.E.                                          ",
"                                      + % e B < + 7.E._.|.[.~./.{.|.|.|.|.|._.E.E.E.E.                                          ",
"                                      + % 8 w > + 7.E._.|.{.'.'.{.{.|.|.|.|._.E.E.                                              ",
"                                      + % 6 6 > + 7.~._.|.|.|.|.{.{.|.|.|.|._.E.                                                ",
"                                          > > > < x 3.p.}.[._._._._.{.{.^.C.R.                                                  ",
"                                          + % 8 6 > O #.|.'.E.E.E.~.[.{.B.h.                                                    ",
"                                            + > < : + W s.c.v.v.v.b.s.d.5.>.c                                                   ",
"                                              + % % + t l J 2.e.e.<.H k 1 + % %                                                 ",
"                                              = % < q f l E w.y.y.9.H l g q > % =                                               ",
"                                          N B < + V ` Y l :.g.j.n.f.E l / ` w + 5 B N                                           ",
"                                          C C 5 + V { Y F E 0.q.q.0.R F ^ ` w + q C C                                           ",
"                                      B B ! _ q + B { _ _ P 1 1 1 1 ! _ ` ` w + N ` I B B                                       ",
"                                      N N I ) q + N ! ) { P > > > 5 ! ` ! ! q + N ) I N N                                       ",
"                                      % = N C 5 % : > N ` _ ! ! ! ! _ ) q > % + 0 C e % %                                       ",
"                                      + % e B < + % % M | ` ) ) ) ) ` ` 8 % % + 5 B q % +                                       ",
"                                      + % e B * o - e T U.*.5 5 < w J.I.U e * o - B q % +                                       ",
"                                      % % e B & . 2 B $.Y.*.% % + < I.Y.T B & . - B q % +                                       ",
"                                  + % 0 q 5 < O . - B I &.] e q q N %.&.A B & . ; < 5 q 0 % +                                   ",
"                                  % % N B > + o X - B Z _ ! B B B C ~ ( Z B & . O + < B e % +                                   ",
"                                  % % N B > % o X - B Z ` ! B B B B ) _ Z B & . O % < B e % +                                   ",
"                                  % % N B > % o X - B Z { ! B B B B ) ` Z B & . O % < B e % +                                   ",
"                                  % % N B > % o X - B B V B B B B B V V B B & . O % < B e % +                                   ",
"                                  + % q N = + o X - B 0 + < B B B N = % e B & . O + - N q + +                                   ",
"                                  @.+.-.-.Q v 4 . - B e < 5 B B B B 5 < N B & . i n Q -.#.+.@.                                  ",
"                              8.i.].{.}.{./.E.v . 2 B B B B B B B B B B B B & . 6.E._.}.{.}.).t.8.                              ",
"                              e.i.[.|.|.{.R.N.b . & q q q q q q q q q q q q & . 3.V.^.|.|.|.`.t.8.                              ",
"                              e.i.[.|.|.{.z.r.h . X X X X X X X X X X X X X X . c r.x.|.|.|.).t.8.                              ",
"                              1.i.).].].`.a.1.u . X X X X X X . X X X X X X . . c 1.x.].].].(.t.1.                              ",
"                                  u.u.u.u.        O + + + O X X X X + + + +           u.u.u.u.                                  ",
"                                  8.8.8.8.        + % % % + X . X X % % % +           8.8.8.1.                                  ",
"                                                  + % < e 9 X . X X q e > +                                                     ",
"                                                  + % 5 B q X X X X e B > +                                                     ",
"                                                  + % < B 0 X X X X e B > %                                                     ",
"                                                  + + < B 0 X X X X e B > %                                                     ",
"                                                  + + < B 0 X . X X e B > %                                                     ",
"                                                  + % < B 0 X . X X e B > %                                                     ",
"                                                  + % < B q X . X X e B > %                                                     ",
"                                                  + % 5 B q X . . X e B > %                                                     ",
"                                                  O + * 9 - X . . X 9 9 ; +                                                     ",
"                                                  . X X X X . . . X X X X .                                                     ",
"                                                  @ o X X X . . X X . X X o                                                     ",
"                                              3 3 3 3 # X X . . X X X X # 3 3 3                                                 ",
"                                              3 r r r # X X . . X X X X $ r r r                                                 "
};
