/* XPM */
static char *d0cbe9632e27455ecc2e5bf284b7ba27C8bgvtfAazKbJFfg[] = {
/* columns rows colors chars-per-pixel */
"64 64 189 2 ",
"   c None",
".  c #1D0015",
"X  c #1F0219",
"o  c #210117",
"O  c #23011B",
"+  c #2C001F",
"@  c #230919",
"#  c #2A081F",
"$  c #250722",
"%  c #2E0121",
"&  c #250823",
"*  c #2C092A",
"=  c #310325",
"-  c #3E0B26",
";  c #31052A",
":  c #31092D",
">  c #3F0929",
",  c #3E0528",
"<  c #2E1920",
"1  c #301D22",
"2  c #340D34",
"3  c #370B38",
"4  c #390C3A",
"5  c #3A0A32",
"6  c #2D1132",
"7  c #341136",
"8  c #3C1333",
"9  c #35143B",
"0  c #38143E",
"q  c #34193E",
"w  c #3C1E3C",
"e  c #332024",
"r  c #43072B",
"t  c #420C2B",
"y  c #4A0D2E",
"u  c #40102F",
"i  c #4B102E",
"p  c #410B31",
"a  c #5E0F3A",
"s  c #580E37",
"d  c #411433",
"f  c #4F1635",
"g  c #581939",
"h  c #66123D",
"j  c #69143F",
"k  c #641C3C",
"l  c #513137",
"z  c #3A1642",
"x  c #361B43",
"c  c #381D46",
"v  c #3B1D4A",
"b  c #371540",
"n  c #3F1E51",
"m  c #3B214C",
"M  c #3E2352",
"N  c #3F2858",
"B  c #3F2758",
"V  c #401A4B",
"C  c #491D43",
"Z  c #401D50",
"A  c #771E46",
"S  c #42264C",
"D  c #442748",
"F  c #5A2944",
"G  c #5C3647",
"H  c #402255",
"J  c #42265A",
"K  c #42295C",
"L  c #4C3C5A",
"P  c #5F3652",
"I  c #6E2141",
"U  c #752542",
"Y  c #7A2447",
"T  c #7B2B4A",
"R  c #742D4F",
"E  c #67354D",
"W  c #773344",
"Q  c #662B51",
"!  c #722F53",
"~  c #673C54",
"^  c #452A61",
"/  c #442E62",
"(  c #452E65",
")  c #442C63",
"_  c #492F69",
"`  c #502E6C",
"'  c #4C3D63",
"]  c #463169",
"[  c #47316A",
"{  c #49336D",
"}  c #48346F",
"|  c #49336D",
" . c #493570",
".. c #4A3672",
"X. c #4A3671",
"o. c #563679",
"O. c #543B7D",
"+. c #553679",
"@. c #68495F",
"#. c #56516F",
"$. c #544C7A",
"%. c #5B5C79",
"&. c #67537C",
"*. c #862D4B",
"=. c #88314F",
"-. c #8C3655",
";. c #953655",
":. c #9A3C57",
">. c #A53E5D",
",. c #A83F5E",
"<. c #AC3F60",
"1. c #914C4F",
"2. c #99465B",
"3. c #8A525F",
"4. c #AF534F",
"5. c #A7445E",
"6. c #AA425F",
"7. c #B54B5F",
"8. c #B04C52",
"9. c #BB5D5E",
"0. c #975161",
"q. c #AC4160",
"w. c #B14663",
"e. c #B54A65",
"r. c #A15664",
"t. c #BB5D6E",
"y. c #BD5468",
"u. c #A26267",
"i. c #B36969",
"p. c #B36B73",
"a. c #C15E55",
"s. c #C66057",
"d. c #DC6E5E",
"f. c #C7656B",
"g. c #C8706F",
"h. c #C46A74",
"j. c #C17B7C",
"k. c #CA7877",
"l. c #D37673",
"z. c #DB8474",
"x. c #D9857A",
"c. c #E6836C",
"v. c #E9867B",
"b. c #F4907E",
"n. c #5A3C82",
"m. c #553D80",
"M. c #5A4289",
"N. c #595881",
"B. c #5F4590",
"V. c #614693",
"C. c #634897",
"Z. c #644997",
"A. c #644998",
"S. c #636A8C",
"D. c #786892",
"F. c #697996",
"G. c #6D829F",
"H. c #CA8C82",
"J. c #D38B85",
"K. c #D78B85",
"L. c #DF9B8D",
"P. c #DD9689",
"I. c #E09C8D",
"U. c #ED9984",
"Y. c #FD9D83",
"T. c #F69480",
"R. c #E09F90",
"E. c #CBA599",
"W. c #F7A087",
"Q. c #FFA185",
"!. c #F8AB8B",
"~. c #E9AB96",
"^. c #E6A592",
"/. c #FEAA91",
"(. c #ECB99D",
"). c #FCBF9C",
"_. c #F9B696",
"`. c #D7B2A2",
"'. c #FEC39F",
"]. c #F5C9A5",
"[. c #FECDA6",
"{. c #F7C7A5",
"}. c #FFD0A7",
"|. c #FED2AA",
" X c #FCD8BB",
".X c #DDC8CA",
"XX c #D3CCD3",
"oX c #FFF1ED",
"OX c #F7F7F9",
/* pixels */
"                                              3 3 3 3 5 % +                                                                     ",
"                                              3 3 4 z 4 : *                                                                     ",
"                                              3 3 Z [ [ [ H % + + +                                                             ",
"                                              3 3 n { {  .K ; = % %                                                             ",
"                                      3 3 3 3 3 3 b m N } [ ) K b q % + + +                                                     ",
"                                      4 4 4 4 4 4 b c M { { } [ v x ; % % %                                                     ",
"                                  3 4 J ^ +.O.` ^ M c m M M M m 0 4 3 5 5 5 ; +                                                 ",
"                                  3 4 (  .M.Z.O.} K c c c c c x 4 3 3 3 3 3 ; % +                                               ",
"                                  ; ; 9 0 v V V v v c c c c c c b b b b H J H M b +                                             ",
"                                  + % + + + + : 3 0 c c c c c c c c c c )  . . .v % +                                           ",
"                                    + % % : 2 x H z 2 b K M c v B K | | { } }  .v % +                                           ",
"                                      + % q c K  .v + 9 } ( v m [  .B.C.O.}  . .v + +                                           ",
"                                      : : v M K ) b + b O.{ 9 q K ) m.M.^ M J ) m 0 7                                           ",
"                                  + % q c )  .M c 7 + V C.+.= % b m [ { 2 + 7 c K  .M % +                                       ",
"                                  + % M K ) ( m q : + V C.+.= % 9 b K ) 9 ; 7 q m ( v % +                                       ",
"                                  + ; O.V.K c 2 % % + V A.+.= % % % b v c c 2 % 2 v 9 % +                                       ",
"                                  + ; n.V.J q : % = r C n.` = = r t 0 x c c 2 + 2 c 9 % +                                       ",
"                                  + ; n.V.z = % + k >.T ; ; + > ;.:.t % q c 2 + 2 v 9 % +                                       ",
"                                  + ; O.V.z + = = U e.=.= ; 8 f 6.6.i = C D d - 8 c 9 % +                                       ",
"                                  + = _ ..3 + I ;.f.b.p.K &.XX.XU.v.5.;.g.x.z.z.3.c 9 % +                                       ",
"                                  + = K { 7 = T w.l.Q.j.} D.OXoX/.T.y.w.v.Q.Y.Q.u.c 9 % +                                       ",
"                                  + % v M R =.j.~.(.'.(.E.`. X X'.).~.^.W.Y.Y.Y.u.c 9 % +                                       ",
"                                  + % q c -.w.L.|.|.|.|.|.|.[.[.[.[.[.[./.Y.Y.Y.u.c 9 % +                                       ",
"                                  + % b c g g r.k.^.}.[.[.[.[.[.[.[.[.[.x.f.r.3.G : :                                           ",
"                                  + % b c * + Y q.J.}.[.[.[.[.[.[.[.[.[.h.<.Q x 2 + +                                           ",
"                                    % 2 2 = % f I i._.).[.[.[.[.[.[.!.U.0.! C 2 :                                               ",
"                                      + % % % % + 1.Q./.|.|.}.}.}.[.c.d.E c 2 + +                                               ",
"                                        + + % % + W g.k.H.H.L.I.I.P.9.8.F 7 : % +                                               ",
"                                          % % % % y j j h A q.q.q.6.A h , + + + + + + % +                                       ",
"                                          + + % % r s a h Y 7.7.;.=.h s 5 2 2 2 2 2 : % +                                       ",
"                                              + % % % r h *.d.s.t = = = H { { { { { M % +                                       ",
"                                              + % = : p a U a.4.d ; : : M ( ) ) ) ( v % +                                       ",
"                                              + + b [ v = = - u ) [ ( ( 9 = ; = ; ; %                                           ",
"                                              + + b [ M % % % 2 ) [ [ ( 2 + % = % % +                                           ",
"                                              + % = : b ^ ^ ^ J 2 : : : % % x ) b % +                                           ",
"                                              + % % % 0 { }  .( ; % % % % % v  .v % +                                           ",
"                                              + + D %.' 2 S S.N.c 9 q 9 $ o 9 M 9 % +                                           ",
"                                              + + L G.#.+ w F.S.m c c c & . 6 c 2 % +                                           ",
"                                              + + S N.' 7 m $.$.m c c c & . 6 v 2 % +                                           ",
"                                              + + x } ^ c M { ] v c c c & . 6 v 2 % +                                           ",
"                                              + + x  .) c M { [ v c c c & . 6 v 2 % +                                           ",
"                                              + + x  .) c M } [ m c c c & . 6 v 2 % +                                           ",
"                                              + % 9 M m c v M M v c c c & . 6 v 2 % +                                           ",
"                                              + % % % : c q % = b c c x $ . 6 c 2 + +                                           ",
"                                              + % % ; 2 c b ; : b m P ~ G l P @.F y i                                           ",
"                                              + % 2 c c c c c c c D x.Y._.].].].J.>.>.                                          ",
"                                              + + : b q q q q q q D l.T.).|.|.|.K.q.q.                                          ",
"                                              . . X X X X X X X X # :.y.~.|.|.|.K.q.q.                                          ",
"                                              . . . . . . . . . . # =.5.R.{.].{.K.6.6.                                          ",
"                                                  . . O + O . O 9 q t y 2.t.t.t.t.                                              ",
"                                                    . O % + . O b c % % *.q.q.6.,.                                              ",
"                                                    . O % + . O b c % %                                                         ",
"                                                    . O % + . O b c % %                                                         ",
"                                                      . O O O O * * 7 7 * +                                                     ",
"                                                        . o % + . . q c : %                                                     ",
"                                                        . o % + . X q c : %                                                     ",
"                                                        . o % + . X q c : %                                                     ",
"                                                        . o % + . X q c : %                                                     ",
"                                                        . o % + . X q c : %                                                     ",
"                                                        . o + + . . 6 9 % +                                                     ",
"                                                        . . . . . . . . . .                                                     ",
"                                                        . . . . X o X X . .                                                     ",
"                                                    . . . . . X < 1 1 1 @ .                                                     ",
"                                                    . . . . . o 1 e e 1 @ .                                                     "
};
