/* XPM */
static char *Starfruit1705235739[] = {
/* columns rows colors chars-per-pixel */
"48 48 6 1 ",
"  c None",
". c #B2552B",
"X c #E88700",
"o c #FFA31C",
"O c yellow",
"+ c #FFFFAE",
/* pixels */
"                                                ",
"                     XXXXXX                     ",
"                     XXXXXX                     ",
"                     XXXXXX                     ",
"                  XXXOOOOOOXXX                  ",
"                  XXXOOOOOOXXX                  ",
"                  XXXOOOOOOXXX                  ",
"               oooOOOOOO+++OOOXXX               ",
"               oooOOOOOO+++OOOXXX               ",
"               oooOOOOOO+++OOOXXX               ",
"   ......ooooooOOOOOOooooooOOOOOOXXXXXX......   ",
"   ......ooooooOOOOOOooooooOOOOOOXXXXXX......   ",
"   ......ooooooOOOOOOooooooOOOOOOXXXXXX......   ",
"...OOOOOOOOOOOOOOOooooooooooooOOOOOOOOOOOOOOO...",
"...OOOOOOOOOOOOOOOooooooooooooOOOOOOOOOOOOOOO...",
"...OOOOOOOOOOOOOOOooooooooooooOOOOOOOOOOOOOOO...",
"...OOO++++++OOOooooooooooooooooooOOO++++++OOO...",
"...OOO++++++OOOooooooooooooooooooOOO++++++OOO...",
"...OOO++++++OOOooooooooooooooooooOOO++++++OOO...",
"...oooooooooooooooooooooooooooooooooooooooooo...",
"...oooooooooooooooooooooooooooooooooooooooooo...",
"...oooooooooooooooooooooooooooooooooooooooooo...",
"   ...oooooooooooooooooo...ooooooooooooooo...   ",
"   ...oooooooooooooooooo...ooooooooooooooo...   ",
"   ...oooooooooooooooooo...ooooooooooooooo...   ",
"      ...ooooooooo...oooooooooooooooooo...      ",
"      ...ooooooooo...oooooooooooooooooo...      ",
"      ...ooooooooo...oooooooooooooooooo...      ",
"      XXXOOOoooooooooooo...oooooooooOOOXXX      ",
"      XXXOOOoooooooooooo...oooooooooOOOXXX      ",
"      XXXOOOoooooooooooo...oooooooooOOOXXX      ",
"   XXX+++OOOooooooooooooooooooooooooOOO+++XXX   ",
"   XXX+++OOOooooooooooooooooooooooooOOO+++XXX   ",
"   XXX+++OOOooooooooooooooooooooooooOOO+++XXX   ",
"   ...OOOooooooooooooooooooooooooooooooOOO...   ",
"   ...OOOooooooooooooooooooooooooooooooOOO...   ",
"   ...OOOooooooooooooooooooooooooooooooOOO...   ",
"   ...oooooooooooo............oooooooooooo...   ",
"   ...oooooooooooo............oooooooooooo...   ",
"   ...oooooooooooo............oooooooooooo...   ",
"   ...ooooooooo...            ...ooooooooo...   ",
"   ...ooooooooo...            ...ooooooooo...   ",
"   ...ooooooooo...            ...ooooooooo...   ",
"      .........                  .........      ",
"      .........                  .........      ",
"      .........                  .........      ",
"                                                ",
"                                                "
};
